
<svg width="409px" height="68px" viewBox="0 0 409 68" version="1.1" xmlns="http://www.w3.org/2000/svg" xmlns:xlink="http://www.w3.org/1999/xlink">
  <!-- Generator: Sketch 51.3 (57544) - http://www.bohemiancoding.com/sketch -->
  <desc>Created with Sketch.</desc>
  <defs></defs>
  <g id="Page-1" stroke="none" stroke-width="1" fill="none" fill-rule="evenodd">
    <g id="global-accounts-solutions-prototyping-white" transform="translate(-1.000000, 0.000000)">
      <path d="M32.78,24.48 C32.7435655,25.608489 32.8853062,26.7356649 33.2,27.82 C33.5304496,28.752532 33.9385473,29.655699 34.42,30.52 C34.5779654,30.7764208 34.6674871,31.0690879 34.68,31.37 C34.6446408,31.8276994 34.3916949,32.2405964 34,32.48 L31.6,34.06 C31.3049088,34.263015 30.9579635,34.377507 30.6,34.39 C30.1733141,34.371661 29.7725125,34.1802872 29.49,33.86 C28.9630698,33.3439987 28.5088936,32.758616 28.14,32.12 C27.77,31.49 27.39,30.76 26.99,29.93 C24.3167921,33.2586339 20.2587576,35.1695992 15.99,35.11 C13.2329303,35.2587357 10.5324549,34.288872 8.5,32.42 C6.61002018,30.5057075 5.6089195,27.8868862 5.74,25.2 C5.63759004,22.2437141 6.893916,19.4031647 9.15,17.49 C11.43,15.5433333 14.4933333,14.57 18.34,14.57 C19.6784135,14.5746272 21.0149156,14.6715237 22.34,14.86 C23.72,15.06 25.15,15.33 26.64,15.68 L26.64,12.93 C26.64,10.0833333 26.05,8.08333333 24.87,6.93 C23.69,5.77666667 21.6433333,5.19333333 18.73,5.18 C17.3817321,5.19013288 16.039277,5.35793977 14.73,5.68 C13.3406532,6.01200558 11.9797428,6.45338192 10.66,7 C10.2338993,7.19029779 9.79639038,7.35394618 9.35,7.49 C9.15701832,7.54228172 8.9594313,7.57577105 8.76,7.59 C8.23,7.59 7.97,7.19 7.97,6.41 L7.97,4.53 C7.93626664,4.07783514 8.02614053,3.62500903 8.23,3.22 C8.49524319,2.88036901 8.83820031,2.60943289 9.23,2.43 C10.7561467,1.69552649 12.3548149,1.122419 14,0.72 C15.9110504,0.23009886 17.8771909,-0.0118876643 19.85,-3.77475828e-15 C24.31,-3.77475828e-15 27.58,1.01666667 29.66,3.05 C31.74,5.08333333 32.78,8.15666667 32.78,12.27 L32.78,24.48 Z M17.55,30.19 C18.8691584,30.174293 20.1766986,29.9411657 21.42,29.5 C22.8059913,29.0335392 24.0420226,28.2049148 25,27.1 C25.603428,26.411428 26.0412715,25.5938922 26.28,24.71 C26.5391044,23.6466278 26.6601007,22.5542996 26.64,21.46 L26.64,19.88 C25.5023402,19.6097412 24.3505732,19.402757 23.19,19.26 C22.0165974,19.0993972 20.8342758,19.01256 19.65,19 C17.1633333,19 15.3066667,19.5033333 14.08,20.51 C12.8219858,21.5852225 12.1408686,23.1880689 12.24,24.84 C12.1234949,26.307255 12.6235575,27.7567119 13.62,28.84 C14.6957562,29.7991548 16.1119159,30.2856218 17.55,30.19 Z M47.67,34.26 C47.1637126,34.2987222 46.6585019,34.1724195 46.23,33.9 C45.8312784,33.4918337 45.5572281,32.978423 45.44,32.42 L36.65,3.42 C36.4808805,2.93142944 36.3701119,2.42457885 36.32,1.91 C36.2901315,1.65887249 36.3778104,1.40801227 36.5576104,1.23016657 C36.7374105,1.05232087 36.9892139,0.967388839 37.24,1 L40.92,1 C41.4377322,0.953679896 41.9558878,1.08410003 42.39,1.37 C42.7726897,1.78149456 43.03551,2.28984434 43.15,2.84 L49.45,27.65 L55.29,2.82 C55.3606152,2.26585852 55.6098613,1.74981381 56,1.35 C56.4552871,1.07154219 56.9887814,0.948698101 57.52,1 L60.52,1 C61.0499804,0.958302012 61.5793336,1.08801107 62.03,1.37 C62.416326,1.77369375 62.6678896,2.28730271 62.75,2.84 L68.67,28 L75.17,2.86 C75.28449,2.30984434 75.5473103,1.80149456 75.93,1.39 C76.360923,1.09558967 76.8798059,0.957926847 77.4,1 L80.88,1 C81.1327428,0.966731702 81.3865826,1.05290195 81.5668403,1.23315969 C81.747098,1.41341743 81.8332683,1.6672572 81.8,1.92 C81.7997358,2.11872239 81.7762431,2.31673274 81.73,2.51 C81.6632815,2.82195706 81.5764331,3.12926663 81.47,3.43 L72.47,32.43 C72.3527719,32.988423 72.0787216,33.5018337 71.68,33.91 C71.2484063,34.18386 70.7395654,34.3101929 70.23,34.27 L67,34.27 C66.4651223,34.3203829 65.92979,34.178573 65.49,33.87 C65.0990156,33.4536489 64.8473688,32.9258897 64.77,32.36 L58.9,8.2 L53.12,32.35 C53.0426312,32.9158897 52.7909844,33.4436489 52.4,33.86 C51.9594685,34.1669756 51.4247311,34.3086279 50.89,34.26 L47.67,34.26 Z M95.84,35.26 C93.8976635,35.2630134 91.9614859,35.0415442 90.07,34.6 C88.5631411,34.301682 87.1055971,33.793393 85.74,33.09 C85.2597319,32.8879975 84.8567351,32.5375655 84.59,32.09 C84.4468922,31.7755164 84.3686666,31.4354051 84.36,31.09 L84.36,29.07 C84.36,28.28 84.64,27.89 85.21,27.89 C85.4458665,27.8923054 85.6794656,27.9363168 85.9,28.02 C86.14,28.11 86.46,28.24 86.85,28.42 C88.1833837,29.001479 89.5744246,29.4405786 91,29.73 C92.4675714,30.0319105 93.961701,30.1860136 95.46,30.19 C97.3680071,30.2985951 99.2678141,29.865245 100.94,28.94 C102.178326,28.196761 102.919834,26.8437 102.88,25.4 C102.913802,24.4245441 102.553357,23.476574 101.88,22.77 C100.785327,21.8347544 99.4982076,21.1519322 98.11,20.77 L92.66,19.07 C90.3130397,18.4535128 88.2160911,17.1219504 86.66,15.26 C85.4516072,13.6998558 84.794029,11.7833846 84.79,9.81 C84.7540631,8.3597708 85.0988519,6.92544915 85.79,5.65 C86.4684591,4.44867284 87.3835816,3.3974726 88.48,2.56 C89.6486369,1.69258287 90.9674191,1.0484476 92.37,0.66 C93.9031617,0.21301487 95.4930359,-0.00929804781 97.09,-3.33066907e-16 C97.9357153,0.00443724294 98.7804635,0.0578600557 99.62,0.16 C100.47,0.27 101.28,0.42 102.05,0.59 C102.82,0.76 103.52,0.96 104.18,1.18 C104.722019,1.35260272 105.247459,1.57348823 105.75,1.84 C106.184947,2.06286441 106.566907,2.37661756 106.87,2.76 C107.108567,3.12794493 107.22412,3.56214651 107.2,4 L107.2,5.77 C107.2,6.56 106.91,6.96 106.34,6.96 C105.835935,6.89589814 105.347878,6.73999119 104.9,6.5 C102.623699,5.50915161 100.162356,5.01483761 97.68,5.05 C95.9544821,4.93916112 94.2301554,5.28402645 92.68,6.05 C91.5043267,6.74244214 90.8195075,8.03856878 90.91,9.4 C90.8663373,10.4181139 91.2635427,11.4056613 92,12.11 C93.2175402,13.0800051 94.6242336,13.7850548 96.13,14.18 L101.45,15.88 C103.70749,16.4673565 105.733487,17.7261949 107.26,19.49 C108.408366,20.9974525 109.020722,22.8450786 109,24.74 C109.021574,26.2525442 108.678571,27.7480395 108,29.1 C107.347014,30.3922503 106.418531,31.5255458 105.28,32.42 C104.038021,33.3817154 102.622141,34.0947489 101.11,34.52 C99.3967552,35.0105535 97.6220441,35.2530188 95.84,35.24 L95.84,35.26 Z" id="Shape" fill="#FFFFFF" fill-rule="nonzero"></path>
      <path d="M102.94,53.48 C90.59,62.59 72.69,67.48 57.28,67.48 C36.6790452,67.5753053 16.7854876,59.9716723 1.5,46.16 C0.34,45.16 1.37,43.69 2.76,44.5 C19.7558173,54.2123404 38.9948331,59.3142475 58.57,59.3 C73.195245,59.2295412 87.6623889,56.269503 101.14,50.59 C103.23,49.71 105,52 102.94,53.48 Z" id="Shape" fill="#F89628"></path>
      <path d="M108.07,47.61 C106.49,45.61 97.64,46.61 93.66,47.13 C92.45,47.27 92.26,46.22 93.35,45.46 C100.42,40.46 112,41.93 113.35,43.59 C114.7,45.25 113,56.88 106.35,62.42 C105.35,63.27 104.35,62.81 104.82,61.69 C106.32,58 109.66,49.63 108.07,47.61 Z" id="Shape" fill="#F89628"></path>
      <path d="M139.06,30.32 C138.233508,30.3230485 137.408982,30.2392553 136.6,30.07 C135.872758,29.9232154 135.16711,29.684639 134.5,29.36 C134.268517,29.2402352 134.136649,28.9884871 134.17,28.73 L134.17,28.31 C134.17,28.05 134.28,27.92 134.5,27.92 L134.7,27.92 L135.07,28.04 C136.326123,28.4717398 137.641995,28.704548 138.97,28.73 C140.469112,28.8602122 141.954726,28.3601764 143.07,27.35 C144.040453,26.1179262 144.505286,24.5625246 144.37,23 L144.37,21.56 C143.631702,22.1676317 142.801289,22.6537271 141.91,23 C141.092394,23.3431667 140.2166,23.5264723 139.33,23.54 C137.556124,23.6064347 135.851007,22.849835 134.71,21.49 C133.508926,19.9466185 132.902094,18.0232072 133,16.07 C132.881685,14.0156065 133.494563,11.985669 134.73,10.34 C135.874216,8.93894209 137.612829,8.16045827 139.42,8.24 C141.282623,8.23482315 143.074774,8.95168356 144.42,10.24 L144.54,9.13 C144.542045,9.00056812 144.598532,8.87798846 144.695597,8.79234284 C144.792662,8.70669721 144.921321,8.6659134 145.05,8.68 L145.65,8.68 C145.773725,8.66326717 145.898168,8.70526514 145.986451,8.79354865 C146.074735,8.88183217 146.116733,9.00627462 146.1,9.13 L146.1,23.13 C146.23902,25.0943404 145.591476,27.0333761 144.3,28.52 C142.875227,29.8151319 140.979888,30.4662025 139.06,30.32 Z M139.72,22.01 C141.444278,21.9220152 143.08595,21.2441634 144.37,20.09 L144.37,11.75 C143.65959,11.1393812 142.860455,10.6403434 142,10.27 C141.228519,9.9559657 140.402938,9.79628544 139.57,9.8 C138.198884,9.71850974 136.871649,10.298478 136,11.36 C135.076645,12.7239487 134.633362,14.356355 134.74,16 C134.630881,17.5908303 135.076116,19.1703517 136,20.47 C136.931316,21.5353406 138.308641,22.1018211 139.72,22 L139.72,22.01 Z" id="Shape" fill="#FFFFFF" fill-rule="nonzero"></path>
      <path d="M153.31,23.87 C152.612716,23.9118485 151.930116,23.6576891 151.43,23.17 C150.952612,22.617231 150.711936,21.8987955 150.76,21.17 L150.76,2 C150.743267,1.87627462 150.785265,1.75183217 150.873549,1.66354865 C150.961832,1.57526514 151.086275,1.53326717 151.21,1.55 L152,1.55 C152.123725,1.53326717 152.248168,1.57526514 152.336451,1.66354865 C152.424735,1.75183217 152.466733,1.87627462 152.45,2 L152.45,21.17 C152.416171,21.5001923 152.505172,21.8312745 152.7,22.1 C152.958586,22.3087107 153.289635,22.4058664 153.62,22.37 L154.02,22.37 L154.4,22.37 C154.515789,22.3529327 154.632825,22.3916558 154.715585,22.4744154 C154.798344,22.5571749 154.837067,22.6742114 154.82,22.79 L154.82,23.36 C154.831698,23.5903103 154.659635,23.7888451 154.43,23.81 C154.060346,23.8741616 153.684393,23.894302 153.31,23.87 Z" id="Shape" fill="#FFFFFF" fill-rule="nonzero"></path>
      <path d="M164.44,24.23 C162.498707,24.339806 160.612247,23.5638933 159.31,22.12 C158.002162,20.4416534 157.35149,18.3438578 157.48,16.22 C157.348974,14.1019869 158.00018,12.0095866 159.31,10.34 C162.157794,7.54218357 166.722206,7.54218357 169.57,10.34 C170.87982,12.0095866 171.531026,14.1019869 171.4,16.22 C171.52851,18.3438578 170.877838,20.4416534 169.57,22.12 C168.267753,23.5638933 166.381293,24.339806 164.44,24.23 Z M164.44,22.67 C167.9,22.67 169.63,20.52 169.63,16.22 C169.63,11.92 167.9,9.78 164.44,9.8 C160.98,9.8 159.25,11.94 159.25,16.22 C159.25,20.5 160.98,22.65 164.44,22.67 Z" id="Shape" fill="#FFFFFF" fill-rule="nonzero"></path>
      <path d="M182.05,24.11 C180.159718,24.0738585 178.354096,23.31943 177,22 L176.88,23.29 C176.884684,23.4216289 176.830155,23.5484338 176.731392,23.6355775 C176.632629,23.7227211 176.500021,23.7610375 176.37,23.74 L175.77,23.74 C175.646275,23.7567328 175.521832,23.7147349 175.433549,23.6264513 C175.345265,23.5381678 175.303267,23.4137254 175.32,23.29 L175.32,2 C175.303267,1.87627462 175.345265,1.75183217 175.433549,1.66354865 C175.521832,1.57526514 175.646275,1.53326717 175.77,1.55 L176.58,1.55 C176.698777,1.54309248 176.814464,1.58941871 176.895645,1.676398 C176.976826,1.76337729 177.015073,1.88198091 177,2 L177,10.28 C177.790409,9.6319079 178.67357,9.1060563 179.62,8.72 C180.476744,8.3827901 181.389283,8.20978083 182.31,8.21 C184.085513,8.13603726 185.790086,8.91219345 186.9,10.3 C188.103765,11.9482754 188.700806,13.9619659 188.59,16 C188.705484,18.1128284 188.079438,20.1996483 186.82,21.9 C185.671222,23.3524195 183.900752,24.1727005 182.05,24.11 Z M181.87,22.55 C183.292616,22.647849 184.674745,22.0517823 185.58,20.95 C186.501547,19.5299219 186.936729,17.8488593 186.82,16.16 C186.82,11.92 185.21,9.8 181.99,9.8 C181.137971,9.80021511 180.293483,9.95961657 179.5,10.27 C178.60195,10.6319815 177.760135,11.1202339 177,11.72 L177,20.51 C177.70872,21.158506 178.519618,21.6855896 179.4,22.07 C180.183612,22.3913588 181.023065,22.5544914 181.87,22.55 Z" id="Shape" fill="#FFFFFF" fill-rule="nonzero"></path>
      <path d="M196,24.11 C194.79237,24.1744391 193.609806,23.7490044 192.72,22.93 C191.888313,22.0901851 191.445927,20.9407066 191.5,19.76 C191.439173,18.4398397 191.993055,17.1659118 193,16.31 C194.165447,15.4153825 195.613052,14.9683281 197.08,15.05 C198.536109,15.0682691 199.9816,15.3007607 201.37,15.74 L201.37,13.22 C201.46356,12.2629317 201.147462,11.311004 200.5,10.6 C199.669755,9.9908914 198.645452,9.70636261 197.62,9.8 C196.129973,9.82170217 194.652359,10.0747183 193.24,10.55 C193.095592,10.6032146 192.943767,10.6335796 192.79,10.64 C192.59,10.64 192.49,10.51 192.49,10.25 L192.49,9.77 C192.482391,9.64044763 192.513737,9.51158344 192.58,9.4 C192.655851,9.29612726 192.759997,9.21628211 192.88,9.17 C194.473295,8.54812703 196.169661,8.2326031 197.88,8.24 C199.274466,8.12717673 200.662817,8.52131198 201.79,9.35 C202.699956,10.2207101 203.16999,11.4545484 203.07,12.71 L203.07,23.33 C203.086733,23.4537254 203.044735,23.5781678 202.956451,23.6664513 C202.868168,23.7547349 202.743725,23.7967328 202.62,23.78 L202,23.78 C201.874007,23.7949343 201.74785,23.7534652 201.65529,23.6666903 C201.56273,23.5799154 201.513217,23.4566933 201.52,23.33 L201.43,22 C199.924145,23.3195007 198.001697,24.0665295 196,24.11 Z M196.24,22.55 C197.08013,22.5370561 197.911959,22.3815108 198.7,22.09 C199.6349,21.7515158 200.530174,21.3122616 201.37,20.78 L201.37,17 C200.099372,16.6494285 198.788079,16.4678648 197.47,16.46 C194.67,16.46 193.27,17.54 193.27,19.7 C193.216002,20.4739891 193.487909,21.2353285 194.02,21.8 C194.64038,22.3393346 195.450095,22.6092397 196.27,22.55 L196.24,22.55 Z" id="Shape" fill="#FFFFFF" fill-rule="nonzero"></path>
      <path d="M210.28,23.87 C209.58574,23.9115042 208.906354,23.6571886 208.41,23.17 C207.925127,22.6210183 207.680238,21.9007576 207.73,21.17 L207.73,2 C207.713267,1.87627462 207.755265,1.75183217 207.843549,1.66354865 C207.931832,1.57526514 208.056275,1.53326717 208.18,1.55 L209,1.55 C209.123725,1.53326717 209.248168,1.57526514 209.336451,1.66354865 C209.424735,1.75183217 209.466733,1.87627462 209.45,2 L209.45,21.17 C209.418073,21.5015396 209.510764,21.8330865 209.71,22.1 C209.964449,22.309151 210.292656,22.4065311 210.62,22.37 L211.03,22.37 L211.4,22.37 C211.515789,22.3529327 211.632825,22.3916558 211.715585,22.4744154 C211.798344,22.5571749 211.837067,22.6742114 211.82,22.79 L211.82,23.36 C211.831698,23.5903103 211.659635,23.7888451 211.43,23.81 C211.050519,23.8765646 210.664348,23.8967126 210.28,23.87 Z" id="Shape" fill="#FFFFFF" fill-rule="nonzero"></path>
      <path d="M226.63,24.11 C225.419638,24.1726161 224.234659,23.7476084 223.34,22.93 C222.516128,22.0858216 222.078167,20.9384381 222.13,19.76 C222.069173,18.4398397 222.623055,17.1659118 223.63,16.31 C224.795447,15.4153825 226.243052,14.9683281 227.71,15.05 C229.166109,15.0682691 230.6116,15.3007607 232,15.74 L232,13.22 C232.09356,12.2629317 231.777462,11.311004 231.13,10.6 C230.299755,9.9908914 229.275452,9.70636261 228.25,9.8 C226.759973,9.82170217 225.282359,10.0747183 223.87,10.55 C223.725592,10.6032146 223.573767,10.6335796 223.42,10.64 C223.22,10.64 223.12,10.51 223.12,10.25 L223.12,9.77 C223.112391,9.64044763 223.143737,9.51158344 223.21,9.4 C223.285851,9.29612726 223.389997,9.21628211 223.51,9.17 C225.103295,8.54812703 226.799661,8.2326031 228.51,8.24 C229.904288,8.12898814 231.292017,8.52294702 232.42,9.35 C233.329956,10.2207101 233.79999,11.4545484 233.7,12.71 L233.7,23.33 C233.716733,23.4537254 233.674735,23.5781678 233.586451,23.6664513 C233.498168,23.7547349 233.373725,23.7967328 233.25,23.78 L232.62,23.78 C232.494007,23.7949343 232.36785,23.7534652 232.27529,23.6666903 C232.18273,23.5799154 232.133217,23.4566933 232.14,23.33 L232,22 C230.509867,23.3064592 228.610918,24.0526012 226.63,24.11 Z M226.87,22.55 C227.71013,22.5370561 228.541959,22.3815108 229.33,22.09 C230.2649,21.7515158 231.160174,21.3122616 232,20.78 L232,17 C230.729372,16.6494285 229.418079,16.4678648 228.1,16.46 C225.3,16.46 223.9,17.54 223.9,19.7 C223.846002,20.4739891 224.117909,21.2353285 224.65,21.8 C225.262831,22.3317716 226.060232,22.6011638 226.87,22.55 Z" id="Shape" fill="#FFFFFF" fill-rule="nonzero"></path>
      <path d="M244.63,24.11 C242.662322,24.2467917 240.733255,23.5160844 239.35,22.11 C238.039597,20.4459417 237.397684,18.352592 237.55,16.24 C237.403767,14.1263194 238.056911,12.0348307 239.38,10.38 C240.773258,8.97027649 242.71293,8.23970301 244.69,8.38 C245.766038,8.37559135 246.83374,8.5687946 247.84,8.95 C248.08,9.03 248.2,9.24 248.2,9.58 L248.2,10 C248.2,10.26 248.08,10.39 247.84,10.39 L247.62,10.39 L247.18,10.3 C246.395343,10.1018863 245.58928,10.0011285 244.78,10 C243.258874,9.85781007 241.752179,10.3917359 240.66,11.46 C239.8,12.46 239.38,13.98 239.38,16.12 L239.38,16.48 C239.268593,18.09112 239.725017,19.6903717 240.67,21 C241.734036,22.0690303 243.217398,22.6110984 244.72,22.48 C245.603341,22.4650539 246.480875,22.3339282 247.33,22.09 L247.79,21.97 L248.02,21.97 C248.26,21.97 248.38,22.1 248.38,22.36 L248.38,22.78 C248.413351,23.0384871 248.281483,23.2902352 248.05,23.41 C246.968346,23.8698961 245.805362,24.1079336 244.63,24.11 Z" id="Shape" fill="#FFFFFF" fill-rule="nonzero"></path>
      <path d="M257.56,24.11 C255.592322,24.2467917 253.663255,23.5160844 252.28,22.11 C250.969597,20.4459417 250.327684,18.352592 250.48,16.24 C250.333767,14.1263194 250.986911,12.0348307 252.31,10.38 C253.703258,8.97027649 255.64293,8.23970301 257.62,8.38 C258.696038,8.37559135 259.76374,8.5687946 260.77,8.95 C261.01,9.03 261.13,9.24 261.13,9.58 L261.13,10 C261.13,10.26 261.01,10.39 260.77,10.39 L260.54,10.39 L260.11,10.3 C259.325343,10.1018863 258.51928,10.0011285 257.71,10 C256.186193,9.86029585 254.677454,10.3936517 253.58,11.46 C252.73,12.46 252.31,13.98 252.31,16.12 L252.31,16.48 C252.198593,18.09112 252.655017,19.6903717 253.6,21 C254.652393,22.0550952 256.114301,22.5960013 257.6,22.48 C258.483341,22.4650539 259.360875,22.3339282 260.21,22.09 L260.67,21.97 L260.9,21.97 C261.14,21.97 261.26,22.1 261.26,22.36 L261.26,22.78 C261.293351,23.0384871 261.161483,23.2902352 260.93,23.41 C259.863852,23.8633889 258.718515,24.1012928 257.56,24.11 Z" id="Shape" fill="#FFFFFF" fill-rule="nonzero"></path>
      <path d="M270.37,24.23 C268.428707,24.339806 266.542247,23.5638933 265.24,22.12 C263.932162,20.4416534 263.28149,18.3438578 263.41,16.22 C263.278974,14.1019869 263.93018,12.0095866 265.24,10.34 C268.087794,7.54218357 272.652206,7.54218357 275.5,10.34 C276.80982,12.0095866 277.461026,14.1019869 277.33,16.22 C277.45851,18.3438578 276.807838,20.4416534 275.5,22.12 C274.197753,23.5638933 272.311293,24.339806 270.37,24.23 Z M270.37,22.67 C273.83,22.67 275.56,20.52 275.56,16.22 C275.56,11.92 273.83,9.78 270.37,9.8 C266.91,9.8 265.18,11.94 265.18,16.22 C265.18,20.5 266.91,22.65 270.37,22.67 Z" id="Shape" fill="#FFFFFF" fill-rule="nonzero"></path>
      <path d="M285.58,24.23 C284.359725,24.3116955 283.159441,23.8887038 282.26,23.06 C281.433964,22.1201049 281.01967,20.8880297 281.11,19.64 L281.11,9.14 C281.093267,9.01627462 281.135265,8.89183217 281.223549,8.80354865 C281.311832,8.71526514 281.436275,8.67326717 281.56,8.69 L282.37,8.69 C282.493725,8.67326717 282.618168,8.71526514 282.706451,8.80354865 C282.794735,8.89183217 282.836733,9.01627462 282.82,9.14 L282.82,18.92 C282.732757,19.9344289 282.997614,20.9479481 283.57,21.79 C284.187111,22.4253584 285.057775,22.7486431 285.94,22.67 C286.8788,22.6767928 287.811978,22.5246441 288.7,22.22 C289.681731,21.8559265 290.610049,21.3614964 291.46,20.75 L291.46,9.14 C291.443267,9.01627462 291.485265,8.89183217 291.573549,8.80354865 C291.661832,8.71526514 291.786275,8.67326717 291.91,8.69 L292.72,8.69 C292.843725,8.67326717 292.968168,8.71526514 293.056451,8.80354865 C293.144735,8.89183217 293.186733,9.01627462 293.17,9.14 L293.17,23.33 C293.186733,23.4537254 293.144735,23.5781678 293.056451,23.6664513 C292.968168,23.7547349 292.843725,23.7967328 292.72,23.78 L292.12,23.78 C291.991321,23.7940866 291.862662,23.7533028 291.765597,23.6676572 C291.668532,23.5820115 291.612045,23.4594319 291.61,23.33 L291.49,22.13 C289.801799,23.4559066 287.726325,24.1933847 285.58,24.23 Z" id="Shape" fill="#FFFFFF" fill-rule="nonzero"></path>
      <path d="M298.3,23.78 C298.176275,23.7967328 298.051832,23.7547349 297.963549,23.6664513 C297.875265,23.5781678 297.833267,23.4537254 297.85,23.33 L297.85,9.14 C297.833267,9.01627462 297.875265,8.89183217 297.963549,8.80354865 C298.051832,8.71526514 298.176275,8.67326717 298.3,8.69 L298.9,8.69 C299.030021,8.66896246 299.162629,8.70727887 299.261392,8.79442253 C299.360155,8.88156618 299.414684,9.00837111 299.41,9.14 L299.53,10.43 C300.478222,9.74661375 301.518584,9.20118119 302.62,8.81 C303.629996,8.44243564 304.695244,8.24967646 305.77,8.24 C306.994656,8.15711965 308.200355,8.57586562 309.11,9.4 C309.940513,10.3298496 310.358995,11.556436 310.27,12.8 L310.27,23.33 C310.286733,23.4537254 310.244735,23.5781678 310.156451,23.6664513 C310.068168,23.7547349 309.943725,23.7967328 309.82,23.78 L309,23.78 C308.876275,23.7967328 308.751832,23.7547349 308.663549,23.6664513 C308.575265,23.5781678 308.533267,23.4537254 308.55,23.33 L308.55,13.52 C308.635329,12.5182723 308.370237,11.5179911 307.8,10.69 C307.17306,10.0497996 306.292769,9.72335831 305.4,9.8 C303.30038,9.83174298 301.26008,10.5013798 299.55,11.72 L299.55,23.33 C299.566733,23.4537254 299.524735,23.5781678 299.436451,23.6664513 C299.348168,23.7547349 299.223725,23.7967328 299.1,23.78 L298.3,23.78 Z" id="Shape" fill="#FFFFFF" fill-rule="nonzero"></path>
      <path d="M319.54,24 C318.549149,24.0703853 317.57291,23.7305093 316.84,23.06 C316.17535,22.3042211 315.840495,21.3140567 315.91,20.31 L315.91,10.19 L313.54,10.19 C313.416275,10.2067328 313.291832,10.1647349 313.203549,10.0764513 C313.115265,9.98816783 313.073267,9.86372538 313.09,9.74 L313.09,9.44 C313.081206,9.31350465 313.112713,9.18747525 313.18,9.08 C313.275388,8.98428026 313.404866,8.93033104 313.54,8.93 L316,8.72 L316.21,4.72 C316.215008,4.59550439 316.260671,4.47607891 316.34,4.38 C316.42774,4.3021439 316.542935,4.26254545 316.66,4.27 L317.2,4.27 C317.323725,4.25326717 317.448168,4.29526514 317.536451,4.38354865 C317.624735,4.47183217 317.666733,4.59627462 317.65,4.72 L317.65,8.69 L322,8.69 C322.123725,8.67326717 322.248168,8.71526514 322.336451,8.80354865 C322.424735,8.89183217 322.466733,9.01627462 322.45,9.14 L322.45,9.74 C322.466733,9.86372538 322.424735,9.98816783 322.336451,10.0764513 C322.248168,10.1647349 322.123725,10.2067328 322,10.19 L317.65,10.19 L317.65,20.19 C317.585428,20.8160371 317.772512,21.44205 318.17,21.93 C318.670047,22.3184496 319.299739,22.500917 319.93,22.44 C320.44396,22.4463244 320.957054,22.3960211 321.46,22.29 L321.98,22.19 C322.074901,22.1643478 322.171988,22.1476086 322.27,22.14 C322.49,22.14 322.6,22.26 322.6,22.5 L322.6,22.95 C322.6,23.29 322.49,23.5 322.27,23.58 C321.388819,23.8672095 320.466762,24.0090645 319.54,24 Z" id="Shape" fill="#FFFFFF" fill-rule="nonzero"></path>
      <path d="M329.56,24.23 C328.757312,24.2301357 327.956635,24.149733 327.17,23.99 C326.435252,23.8466213 325.717871,23.6253728 325.03,23.33 C324.791556,23.230415 324.64566,22.9872554 324.67,22.73 L324.67,22.22 C324.67,21.98 324.78,21.86 325,21.86 L325.28,21.92 L326.14,22.19 C327.288286,22.5341285 328.481272,22.7059994 329.68,22.7 C330.664692,22.7671002 331.644357,22.5107721 332.47,21.97 C333.136531,21.4613213 333.510407,20.657487 333.47,19.82 C333.475887,19.2975504 333.261762,18.7967158 332.88,18.44 C332.293065,17.9486949 331.61273,17.5813143 330.88,17.36 L328.15,16.36 C326.01,15.56 324.94,14.25 324.94,12.43 C324.907484,11.2674045 325.422044,10.1568436 326.33,9.43 C327.371661,8.60721218 328.673722,8.18501807 330,8.24 C331.345481,8.24092058 332.67874,8.49535941 333.93,8.99 C334.168444,9.08958498 334.31434,9.33274462 334.29,9.59 L334.29,10 C334.29,10.26 334.18,10.39 333.96,10.39 C333.705118,10.3686239 333.453498,10.3182998 333.21,10.24 C332.136716,9.92785926 331.02744,9.75642562 329.91,9.73 C329.041109,9.6731358 328.177394,9.90135324 327.45,10.38 C326.875493,10.8373609 326.56164,11.5472661 326.61,12.28 C326.572099,12.8648597 326.782701,13.4385683 327.19,13.86 C327.881291,14.3927347 328.659392,14.8020833 329.49,15.07 L331.89,15.97 C332.822244,16.2700537 333.662213,16.8036407 334.33,17.52 C334.85143,18.1554813 335.124975,18.9583542 335.1,19.78 C335.148535,21.0330096 334.594694,22.2336191 333.61,23.01 C332.441685,23.8727419 331.010457,24.303877 329.56,24.23 Z" id="Shape" fill="#FFFFFF" fill-rule="nonzero"></path>
      <path d="M137.56,54.23 C136.757312,54.2301357 135.956635,54.149733 135.17,53.99 C134.435252,53.8466213 133.717871,53.6253728 133.03,53.33 C132.791556,53.230415 132.64566,52.9872554 132.67,52.73 L132.67,52.22 C132.67,51.98 132.78,51.86 133,51.86 L133.29,51.92 L134.14,52.19 C135.288286,52.5341285 136.481272,52.7059994 137.68,52.7 C138.664692,52.7671002 139.644357,52.5107721 140.47,51.97 C141.136531,51.4613213 141.510407,50.657487 141.47,49.82 C141.480983,49.2965494 141.266006,48.7937232 140.88,48.44 C140.294654,47.9463563 139.613814,47.5787025 138.88,47.36 L136.15,46.36 C134.01,45.56 132.94,44.25 132.94,42.43 C132.912148,41.2683691 133.425795,40.1597777 134.33,39.43 C135.372085,38.608005 136.673844,38.1859087 138,38.24 C139.345481,38.2409206 140.67874,38.4953594 141.93,38.99 C142.168444,39.089585 142.31434,39.3327446 142.29,39.59 L142.29,40 C142.29,40.26 142.18,40.39 141.96,40.39 C141.705118,40.3686239 141.453498,40.3182998 141.21,40.24 C140.136716,39.9278593 139.02744,39.7564256 137.91,39.73 C137.041109,39.6731358 136.177394,39.9013532 135.45,40.38 C134.875493,40.8373609 134.56164,41.5472661 134.61,42.28 C134.575819,42.8643161 134.785889,43.4365762 135.19,43.86 C135.882677,44.3905715 136.660389,44.7997161 137.49,45.07 L139.89,45.97 C140.823783,46.2729158 141.666322,46.8059505 142.34,47.52 C142.857838,48.1568929 143.127783,48.9596238 143.1,49.78 C143.148535,51.0330096 142.594694,52.2336191 141.61,53.01 C140.44244,53.8742482 139.01066,54.3055497 137.56,54.23 Z" id="Shape" fill="#FFFFFF" fill-rule="nonzero"></path>
      <path d="M152.56,54.23 C150.618707,54.339806 148.732247,53.5638933 147.43,52.12 C146.122162,50.4416534 145.47149,48.3438578 145.6,46.22 C145.468974,44.1019869 146.12018,42.0095866 147.43,40.34 C150.277794,37.5421836 154.842206,37.5421836 157.69,40.34 C158.99982,42.0095866 159.651026,44.1019869 159.52,46.22 C159.64851,48.3438578 158.997838,50.4416534 157.69,52.12 C156.387753,53.5638933 154.501293,54.339806 152.56,54.23 Z M152.56,52.67 C156.02,52.67 157.75,50.52 157.75,46.22 C157.75,41.92 156.02,39.78 152.56,39.8 C149.1,39.8 147.37,41.94 147.37,46.22 C147.37,50.5 149.1,52.65 152.56,52.67 Z" id="Shape" fill="#FFFFFF" fill-rule="nonzero"></path>
      <path d="M166,53.87 C165.302716,53.9118485 164.620116,53.6576891 164.12,53.17 C163.642612,52.617231 163.401936,51.8987955 163.45,51.17 L163.45,32 C163.433267,31.8762746 163.475265,31.7518322 163.563549,31.6635487 C163.651832,31.5752651 163.776275,31.5332672 163.9,31.55 L164.71,31.55 C164.833725,31.5332672 164.958168,31.5752651 165.046451,31.6635487 C165.134735,31.7518322 165.176733,31.8762746 165.16,32 L165.16,51.17 C165.126171,51.5001923 165.215172,51.8312745 165.41,52.1 C165.668586,52.3087107 165.999635,52.4058664 166.33,52.37 L166.74,52.37 L167.11,52.37 C167.225789,52.3529327 167.342825,52.3916558 167.425585,52.4744154 C167.508344,52.5571749 167.547067,52.6742114 167.53,52.79 L167.53,53.36 C167.541698,53.5903103 167.369635,53.7888451 167.14,53.81 C166.763794,53.8757564 166.38103,53.8959019 166,53.87 Z" id="Shape" fill="#FFFFFF" fill-rule="nonzero"></path>
      <path d="M175.27,54.23 C174.066019,54.3025073 172.884703,53.8798347 172,53.06 C171.166349,52.1240107 170.747802,50.8900199 170.84,49.64 L170.84,39.14 C170.823267,39.0162746 170.865265,38.8918322 170.953549,38.8035487 C171.041832,38.7152651 171.166275,38.6732672 171.29,38.69 L172.1,38.69 C172.223725,38.6732672 172.348168,38.7152651 172.436451,38.8035487 C172.524735,38.8918322 172.566733,39.0162746 172.55,39.14 L172.55,48.92 C172.462757,49.9344289 172.727614,50.9479481 173.3,51.79 C173.917111,52.4253584 174.787775,52.7486431 175.67,52.67 C176.6088,52.6767928 177.541978,52.5246441 178.43,52.22 C179.411731,51.8559265 180.340049,51.3614964 181.19,50.75 L181.19,39.14 C181.173267,39.0162746 181.215265,38.8918322 181.303549,38.8035487 C181.391832,38.7152651 181.516275,38.6732672 181.64,38.69 L182.45,38.69 C182.573725,38.6732672 182.698168,38.7152651 182.786451,38.8035487 C182.874735,38.8918322 182.916733,39.0162746 182.9,39.14 L182.9,53.33 C182.916733,53.4537254 182.874735,53.5781678 182.786451,53.6664513 C182.698168,53.7547349 182.573725,53.7967328 182.45,53.78 L181.85,53.78 C181.721321,53.7940866 181.592662,53.7533028 181.495597,53.6676572 C181.398532,53.5820115 181.342045,53.4594319 181.34,53.33 L181.22,52.13 C179.520952,53.4641494 177.430079,54.2021047 175.27,54.23 Z" id="Shape" fill="#FFFFFF" fill-rule="nonzero"></path>
      <path d="M192.19,54 C191.199149,54.0703853 190.22291,53.7305093 189.49,53.06 C188.82535,52.3042211 188.490495,51.3140567 188.56,50.31 L188.56,40.19 L186.19,40.19 C186.066275,40.2067328 185.941832,40.1647349 185.853549,40.0764513 C185.765265,39.9881678 185.723267,39.8637254 185.74,39.74 L185.74,39.44 C185.731206,39.3135047 185.762713,39.1874753 185.83,39.08 C185.925388,38.9842803 186.054866,38.930331 186.19,38.93 L188.62,38.72 L188.83,34.72 C188.835008,34.5955044 188.880671,34.4760789 188.96,34.38 C189.04774,34.3021439 189.162935,34.2625455 189.28,34.27 L189.82,34.27 C189.943725,34.2532672 190.068168,34.2952651 190.156451,34.3835487 C190.244735,34.4718322 190.286733,34.5962746 190.27,34.72 L190.27,38.65 L194.62,38.65 C194.743725,38.6332672 194.868168,38.6752651 194.956451,38.7635487 C195.044735,38.8518322 195.086733,38.9762746 195.07,39.1 L195.07,39.7 C195.086733,39.8237254 195.044735,39.9481678 194.956451,40.0364513 C194.868168,40.1247349 194.743725,40.1667328 194.62,40.15 L190.27,40.15 L190.27,50.15 C190.205428,50.7760371 190.392512,51.40205 190.79,51.89 C191.290047,52.2784496 191.919739,52.460917 192.55,52.4 C193.06396,52.4063244 193.577054,52.3560211 194.08,52.25 L194.6,52.15 C194.696462,52.1411099 194.793538,52.1411099 194.89,52.15 C195.11,52.15 195.22,52.27 195.22,52.51 L195.22,52.96 C195.22,53.3 195.11,53.51 194.89,53.59 C194.01782,53.8706161 193.106166,54.0090525 192.19,54 Z" id="Shape" fill="#FFFFFF" fill-rule="nonzero"></path>
      <path d="M199.39,35.45 C199.036844,35.4686367 198.692114,35.3380018 198.44,35.09 C197.988458,34.5296445 197.988458,33.7303555 198.44,33.17 C198.692114,32.9219982 199.036844,32.7913633 199.39,32.81 C199.740138,32.7917088 200.081654,32.9225021 200.33,33.17 C200.79731,33.7246958 200.79731,34.5353042 200.33,35.09 C200.081654,35.3374979 199.740138,35.4682912 199.39,35.45 Z M199,53.78 C198.876275,53.7967328 198.751832,53.7547349 198.663549,53.6664513 C198.575265,53.5781678 198.533267,53.4537254 198.55,53.33 L198.55,39.14 C198.533267,39.0162746 198.575265,38.8918322 198.663549,38.8035487 C198.751832,38.7152651 198.876275,38.6732672 199,38.69 L199.81,38.69 C199.933725,38.6732672 200.058168,38.7152651 200.146451,38.8035487 C200.234735,38.8918322 200.276733,39.0162746 200.26,39.14 L200.26,53.33 C200.276733,53.4537254 200.234735,53.5781678 200.146451,53.6664513 C200.058168,53.7547349 199.933725,53.7967328 199.81,53.78 L199,53.78 Z" id="Shape" fill="#FFFFFF" fill-rule="nonzero"></path>
      <path d="M211.21,54.23 C209.268707,54.339806 207.382247,53.5638933 206.08,52.12 C204.772162,50.4416534 204.12149,48.3438578 204.25,46.22 C204.118974,44.1019869 204.77018,42.0095866 206.08,40.34 C208.927794,37.5421836 213.492206,37.5421836 216.34,40.34 C217.64982,42.0095866 218.301026,44.1019869 218.17,46.22 C218.29851,48.3438578 217.647838,50.4416534 216.34,52.12 C215.037753,53.5638933 213.151293,54.339806 211.21,54.23 Z M211.21,52.67 C214.67,52.67 216.4,50.52 216.4,46.22 C216.4,41.92 214.67,39.78 211.21,39.8 C207.75,39.8 206.02,41.94 206.02,46.22 C206.02,50.5 207.75,52.65 211.21,52.67 Z" id="Shape" fill="#FFFFFF" fill-rule="nonzero"></path>
      <path d="M222.52,53.78 C222.396275,53.7967328 222.271832,53.7547349 222.183549,53.6664513 C222.095265,53.5781678 222.053267,53.4537254 222.07,53.33 L222.07,39.14 C222.053267,39.0162746 222.095265,38.8918322 222.183549,38.8035487 C222.271832,38.7152651 222.396275,38.6732672 222.52,38.69 L223.12,38.69 C223.250021,38.6689625 223.382629,38.7072789 223.481392,38.7944225 C223.580155,38.8815662 223.634684,39.0083711 223.63,39.14 L223.75,40.43 C224.698222,39.7466138 225.738584,39.2011812 226.84,38.81 C227.849996,38.4424356 228.915244,38.2496765 229.99,38.24 C231.214656,38.1571196 232.420355,38.5758656 233.33,39.4 C234.160513,40.3298496 234.578995,41.556436 234.49,42.8 L234.49,53.33 C234.506733,53.4537254 234.464735,53.5781678 234.376451,53.6664513 C234.288168,53.7547349 234.163725,53.7967328 234.04,53.78 L233.23,53.78 C233.106275,53.7967328 232.981832,53.7547349 232.893549,53.6664513 C232.805265,53.5781678 232.763267,53.4537254 232.78,53.33 L232.78,43.52 C232.865329,42.5182723 232.600237,41.5179911 232.03,40.69 C231.40306,40.0497996 230.522769,39.7233583 229.63,39.8 C227.53038,39.831743 225.49008,40.5013798 223.78,41.72 L223.78,53.33 C223.796733,53.4537254 223.754735,53.5781678 223.666451,53.6664513 C223.578168,53.7547349 223.453725,53.7967328 223.33,53.78 L222.52,53.78 Z" id="Shape" fill="#FFFFFF" fill-rule="nonzero"></path>
      <path d="M242.92,54.23 C242.117312,54.2301357 241.316635,54.149733 240.53,53.99 C239.795252,53.8466213 239.077871,53.6253728 238.39,53.33 C238.151556,53.230415 238.00566,52.9872554 238.03,52.73 L238.03,52.22 C238.03,51.98 238.14,51.86 238.36,51.86 L238.64,51.92 L239.5,52.19 C240.648286,52.5341285 241.841272,52.7059994 243.04,52.7 C244.024692,52.7671002 245.004357,52.5107721 245.83,51.97 C246.496531,51.4613213 246.870407,50.657487 246.83,49.82 C246.835887,49.2975504 246.621762,48.7967158 246.24,48.44 C245.653065,47.9486949 244.97273,47.5813143 244.24,47.36 L241.51,46.36 C239.37,45.56 238.3,44.25 238.3,42.43 C238.267484,41.2674045 238.782044,40.1568436 239.69,39.43 C240.730485,38.6224906 242.024235,38.2113264 243.34,38.27 C244.685481,38.2709206 246.01874,38.5253594 247.27,39.02 C247.508444,39.119585 247.65434,39.3627446 247.63,39.62 L247.63,40 C247.63,40.26 247.52,40.39 247.3,40.39 C247.045118,40.3686239 246.793498,40.3182998 246.55,40.24 C245.476716,39.9278593 244.36744,39.7564256 243.25,39.73 C242.381109,39.6731358 241.517394,39.9013532 240.79,40.38 C240.215493,40.8373609 239.90164,41.5472661 239.95,42.28 C239.912099,42.8648597 240.122701,43.4385683 240.53,43.86 C241.221291,44.3927347 241.999392,44.8020833 242.83,45.07 L245.23,45.97 C246.162244,46.2700537 247.002213,46.8036407 247.67,47.52 C248.19143,48.1554813 248.464975,48.9583542 248.44,49.78 C248.513547,51.0381037 247.977734,52.2548459 247,53.05 C245.818318,53.9052423 244.37577,54.3224497 242.92,54.23 Z" id="Shape" fill="#FFFFFF" fill-rule="nonzero"></path>
      <path d="M260.05,60 C259.926275,60.0167328 259.801832,59.9747349 259.713549,59.8864513 C259.625265,59.7981678 259.583267,59.6737254 259.6,59.55 L259.6,39.14 C259.583267,39.0162746 259.625265,38.8918322 259.713549,38.8035487 C259.801832,38.7152651 259.926275,38.6732672 260.05,38.69 L260.62,38.69 C260.750021,38.6689625 260.882629,38.7072789 260.981392,38.7944225 C261.080155,38.8815662 261.134684,39.0083711 261.13,39.14 L261.25,40.37 C262.055996,39.6971962 262.959671,39.150945 263.93,38.75 C264.786744,38.4127901 265.699283,38.2397808 266.62,38.24 C268.395513,38.1660373 270.100086,38.9421934 271.21,40.33 C272.403572,41.9714567 272.996704,43.9732765 272.89,46 C273.000771,48.1060789 272.374963,50.1850348 271.12,51.88 C269.969138,53.327525 268.197921,54.1407254 266.35,54.07 C264.491106,54.0559345 262.705796,53.3418102 261.35,52.07 L261.35,59.51 C261.366733,59.6337254 261.324735,59.7581678 261.236451,59.8464513 C261.148168,59.9347349 261.023725,59.9767328 260.9,59.96 L260.05,60 Z M266.17,52.59 C267.589769,52.6879234 268.968916,52.0915353 269.87,50.99 C270.799804,49.5732271 271.238941,47.8904539 271.12,46.2 C271.12,41.96 269.51,39.84 266.29,39.84 C264.454468,39.8976603 262.692367,40.5743071 261.29,41.76 L261.29,50.55 C262.006635,51.1855595 262.815921,51.7082233 263.69,52.1 C264.477529,52.416862 265.321352,52.569975 266.17,52.55 L266.17,52.59 Z" id="Shape" fill="#FFFFFF" fill-rule="nonzero"></path>
      <path d="M277.24,53.78 C277.116275,53.7967328 276.991832,53.7547349 276.903549,53.6664513 C276.815265,53.5781678 276.773267,53.4537254 276.79,53.33 L276.79,39.14 C276.773267,39.0162746 276.815265,38.8918322 276.903549,38.8035487 C276.991832,38.7152651 277.116275,38.6732672 277.24,38.69 L277.81,38.69 C277.940021,38.6689625 278.072629,38.7072789 278.171392,38.7944225 C278.270155,38.8815662 278.324684,39.0083711 278.32,39.14 L278.47,40.88 C279.091884,40.1487142 279.849065,39.544328 280.7,39.1 C281.476159,38.738688 282.323955,38.5575059 283.18,38.57 C283.5,38.57 283.76,38.57 283.96,38.57 C284.086693,38.5632168 284.209915,38.6127304 284.29669,38.7052903 C284.383465,38.7978502 284.424934,38.9240072 284.41,39.05 L284.41,39.8 C284.408946,39.885056 284.376952,39.9668172 284.32,40.03 C284.259351,40.0980693 284.171039,40.1348658 284.08,40.13 L283.63,40.13 L283,40.13 C282.155382,40.1137025 281.317957,40.2880238 280.55,40.64 C279.761006,41.0439991 279.063287,41.6055772 278.5,42.29 L278.5,53.29 C278.516733,53.4137254 278.474735,53.5381678 278.386451,53.6264513 C278.298168,53.7147349 278.173725,53.7567328 278.05,53.74 L277.24,53.78 Z" id="Shape" fill="#FFFFFF" fill-rule="nonzero"></path>
      <path d="M293,54.23 C291.058707,54.339806 289.172247,53.5638933 287.87,52.12 C286.562162,50.4416534 285.91149,48.3438578 286.04,46.22 C285.908974,44.1019869 286.56018,42.0095866 287.87,40.34 C290.717794,37.5421836 295.282206,37.5421836 298.13,40.34 C299.454118,42.0039313 300.119734,44.0968846 300,46.22 C300.12851,48.3438578 299.477838,50.4416534 298.17,52.12 C296.858797,53.5752102 294.954983,54.3522021 293,54.23 Z M293,52.67 C296.46,52.67 298.19,50.52 298.19,46.22 C298.19,41.92 296.46,39.78 293,39.8 C289.54,39.8 287.81,41.94 287.81,46.22 C287.81,50.5 289.54,52.65 293,52.67 Z" id="Shape" fill="#FFFFFF" fill-rule="nonzero"></path>
      <path d="M308.2,54 C307.209149,54.0703853 306.23291,53.7305093 305.5,53.06 C304.83535,52.3042211 304.500495,51.3140567 304.57,50.31 L304.57,40.19 L302.2,40.19 C302.076275,40.2067328 301.951832,40.1647349 301.863549,40.0764513 C301.775265,39.9881678 301.733267,39.8637254 301.75,39.74 L301.75,39.44 C301.741206,39.3135047 301.772713,39.1874753 301.84,39.08 C301.935388,38.9842803 302.064866,38.930331 302.2,38.93 L304.63,38.72 L304.84,34.72 C304.845008,34.5955044 304.890671,34.4760789 304.97,34.38 C305.05774,34.3021439 305.172935,34.2625455 305.29,34.27 L305.83,34.27 C305.953725,34.2532672 306.078168,34.2952651 306.166451,34.3835487 C306.254735,34.4718322 306.296733,34.5962746 306.28,34.72 L306.28,38.65 L310.63,38.65 C310.753725,38.6332672 310.878168,38.6752651 310.966451,38.7635487 C311.054735,38.8518322 311.096733,38.9762746 311.08,39.1 L311.08,39.7 C311.096733,39.8237254 311.054735,39.9481678 310.966451,40.0364513 C310.878168,40.1247349 310.753725,40.1667328 310.63,40.15 L306.28,40.15 L306.28,50.15 C306.219814,50.7756167 306.40641,51.3999943 306.8,51.89 C307.300047,52.2784496 307.929739,52.460917 308.56,52.4 C309.07396,52.4063244 309.587054,52.3560211 310.09,52.25 L310.62,52.15 C310.713132,52.1413279 310.806868,52.1413279 310.9,52.15 C311.12,52.15 311.23,52.27 311.23,52.51 L311.23,52.96 C311.23,53.3 311.12,53.51 310.9,53.59 C310.02782,53.8706161 309.116166,54.0090525 308.2,54 Z" id="Shape" fill="#FFFFFF" fill-rule="nonzero"></path>
      <path d="M320.29,54.23 C318.348707,54.339806 316.462247,53.5638933 315.16,52.12 C313.852162,50.4416534 313.20149,48.3438578 313.33,46.22 C313.198974,44.1019869 313.85018,42.0095866 315.16,40.34 C318.007794,37.5421836 322.572206,37.5421836 325.42,40.34 C326.72982,42.0095866 327.381026,44.1019869 327.25,46.22 C327.37851,48.3438578 326.727838,50.4416534 325.42,52.12 C324.117753,53.5638933 322.231293,54.339806 320.29,54.23 Z M320.29,52.67 C323.75,52.67 325.48,50.52 325.48,46.22 C325.48,41.92 323.75,39.78 320.29,39.8 C316.83,39.8 315.1,41.94 315.1,46.22 C315.1,50.5 316.83,52.65 320.29,52.67 Z" id="Shape" fill="#FFFFFF" fill-rule="nonzero"></path>
      <path d="M335.5,54 C334.509149,54.0703853 333.53291,53.7305093 332.8,53.06 C332.13535,52.3042211 331.800495,51.3140567 331.87,50.31 L331.87,40.19 L329.5,40.19 C329.376275,40.2067328 329.251832,40.1647349 329.163549,40.0764513 C329.075265,39.9881678 329.033267,39.8637254 329.05,39.74 L329.05,39.44 C329.041206,39.3135047 329.072713,39.1874753 329.14,39.08 C329.235388,38.9842803 329.364866,38.930331 329.5,38.93 L331.93,38.72 L332.14,34.72 C332.147827,34.5943132 332.197056,34.4747566 332.28,34.38 C332.36408,34.3027108 332.476009,34.2629941 332.59,34.27 L333.13,34.27 C333.253725,34.2532672 333.378168,34.2952651 333.466451,34.3835487 C333.554735,34.4718322 333.596733,34.5962746 333.58,34.72 L333.58,38.65 L337.93,38.65 C338.053725,38.6332672 338.178168,38.6752651 338.266451,38.7635487 C338.354735,38.8518322 338.396733,38.9762746 338.38,39.1 L338.38,39.7 C338.396733,39.8237254 338.354735,39.9481678 338.266451,40.0364513 C338.178168,40.1247349 338.053725,40.1667328 337.93,40.15 L333.58,40.15 L333.58,50.15 C333.518207,50.7774067 333.708937,51.4035783 334.11,51.89 C334.606505,52.2778194 335.232882,52.4603634 335.86,52.4 C336.37396,52.4063244 336.887054,52.3560211 337.39,52.25 L337.92,52.15 C338.013132,52.1413279 338.106868,52.1413279 338.2,52.15 C338.42,52.15 338.53,52.27 338.53,52.51 L338.53,52.96 C338.53,53.3 338.42,53.51 338.2,53.59 C337.32782,53.8706161 336.416166,54.0090525 335.5,54 Z" id="Shape" fill="#FFFFFF" fill-rule="nonzero"></path>
      <path d="M342.25,60.32 C341.781901,60.3218805 341.316351,60.2510359 340.87,60.11 C340.588444,60.054809 340.394148,59.7957468 340.42,59.51 L340.42,59.09 C340.42,58.83 340.54,58.7 340.78,58.7 C340.889737,58.6892346 341.000263,58.6892346 341.11,58.7 C341.238719,58.7254705 341.369019,58.7421756 341.5,58.75 L342.13,58.75 C342.701423,58.779774 343.263822,58.59824 343.71,58.24 C344.213151,57.7196192 344.595539,57.0948252 344.83,56.41 L345.83,53.89 L339.92,39.37 C339.861817,39.2463062 339.821417,39.1150065 339.8,38.98 C339.8,38.76 339.92,38.65 340.16,38.65 L341.16,38.65 C341.403353,38.6350127 341.620703,38.801222 341.67,39.04 L346.67,51.94 L351.74,39.04 C351.789297,38.801222 352.006647,38.6350127 352.25,38.65 L353.15,38.65 C353.39,38.65 353.51,38.76 353.51,38.98 C353.488583,39.1150065 353.448183,39.2463062 353.39,39.37 L346.3,57 C345.955428,57.9882761 345.379392,58.8797614 344.62,59.6 C343.940033,60.1127772 343.100295,60.3678875 342.25,60.32 Z" id="Shape" fill="#FFFFFF" fill-rule="nonzero"></path>
      <path d="M356.74,60 C356.616275,60.0167328 356.491832,59.9747349 356.403549,59.8864513 C356.315265,59.7981678 356.273267,59.6737254 356.29,59.55 L356.29,39.14 C356.273267,39.0162746 356.315265,38.8918322 356.403549,38.8035487 C356.491832,38.7152651 356.616275,38.6732672 356.74,38.69 L357.31,38.69 C357.440021,38.6689625 357.572629,38.7072789 357.671392,38.7944225 C357.770155,38.8815662 357.824684,39.0083711 357.82,39.14 L357.94,40.37 C358.749506,39.6969638 359.656509,39.150739 360.63,38.75 C361.483282,38.4128719 362.392533,38.2398427 363.31,38.24 C365.085513,38.1660373 366.790086,38.9421934 367.9,40.33 C369.093572,41.9714567 369.686704,43.9732765 369.58,46 C369.690771,48.1060789 369.064963,50.1850348 367.81,51.88 C366.659048,53.35419 364.868803,54.1841786 363,54.11 C361.141106,54.0959345 359.355796,53.3818102 358,52.11 L358,59.55 C358.016733,59.6737254 357.974735,59.7981678 357.886451,59.8864513 C357.798168,59.9747349 357.673725,60.0167328 357.55,60 L356.74,60 Z M362.86,52.59 C364.282616,52.687849 365.664745,52.0917823 366.57,50.99 C367.496292,49.5720135 367.931892,47.8893326 367.81,46.2 C367.81,41.96 366.2,39.84 362.98,39.84 C361.144468,39.8976603 359.382367,40.5743071 357.98,41.76 L357.98,50.55 C358.696635,51.1855595 359.505921,51.7082233 360.38,52.1 C361.167529,52.416862 362.011352,52.569975 362.86,52.55 L362.86,52.59 Z" id="Shape" fill="#FFFFFF" fill-rule="nonzero"></path>
      <path d="M374.47,35.45 C374.119458,35.4708765 373.77692,35.3396916 373.53,35.09 C373.06269,34.5353042 373.06269,33.7246958 373.53,33.17 C373.77692,32.9203084 374.119458,32.7891235 374.47,32.81 C374.823156,32.7913633 375.167886,32.9219982 375.42,33.17 C375.871542,33.7303555 375.871542,34.5296445 375.42,35.09 C375.167886,35.3380018 374.823156,35.4686367 374.47,35.45 Z M374.05,53.78 C373.926275,53.7967328 373.801832,53.7547349 373.713549,53.6664513 C373.625265,53.5781678 373.583267,53.4537254 373.6,53.33 L373.6,39.14 C373.583267,39.0162746 373.625265,38.8918322 373.713549,38.8035487 C373.801832,38.7152651 373.926275,38.6732672 374.05,38.69 L374.86,38.69 C374.983725,38.6732672 375.108168,38.7152651 375.196451,38.8035487 C375.284735,38.8918322 375.326733,39.0162746 375.31,39.14 L375.31,53.33 C375.326733,53.4537254 375.284735,53.5781678 375.196451,53.6664513 C375.108168,53.7547349 374.983725,53.7967328 374.86,53.78 L374.05,53.78 Z" id="Shape" fill="#FFFFFF" fill-rule="nonzero"></path>
      <path d="M380.56,53.78 C380.436275,53.7967328 380.311832,53.7547349 380.223549,53.6664513 C380.135265,53.5781678 380.093267,53.4537254 380.11,53.33 L380.11,39.14 C380.093267,39.0162746 380.135265,38.8918322 380.223549,38.8035487 C380.311832,38.7152651 380.436275,38.6732672 380.56,38.69 L381.16,38.69 C381.290021,38.6689625 381.422629,38.7072789 381.521392,38.7944225 C381.620155,38.8815662 381.674684,39.0083711 381.67,39.14 L381.79,40.43 C382.738222,39.7466138 383.778584,39.2011812 384.88,38.81 C385.889996,38.4424356 386.955244,38.2496765 388.03,38.24 C389.257728,38.1566848 390.466686,38.5753093 391.38,39.4 C392.20791,40.3308568 392.622872,41.557702 392.53,42.8 L392.53,53.33 C392.546733,53.4537254 392.504735,53.5781678 392.416451,53.6664513 C392.328168,53.7547349 392.203725,53.7967328 392.08,53.78 L391.27,53.78 C391.146275,53.7967328 391.021832,53.7547349 390.933549,53.6664513 C390.845265,53.5781678 390.803267,53.4537254 390.82,53.33 L390.82,43.52 C390.905329,42.5182723 390.640237,41.5179911 390.07,40.69 C389.44306,40.0497996 388.562769,39.7233583 387.67,39.8 C385.57038,39.831743 383.53008,40.5013798 381.82,41.72 L381.82,53.33 C381.836733,53.4537254 381.794735,53.5781678 381.706451,53.6664513 C381.618168,53.7547349 381.493725,53.7967328 381.37,53.78 L380.56,53.78 Z" id="Shape" fill="#FFFFFF" fill-rule="nonzero"></path>
      <path d="M402.46,60.32 C401.633508,60.3230485 400.808982,60.2392553 400,60.07 C399.272758,59.9232154 398.56711,59.684639 397.9,59.36 C397.668517,59.2402352 397.536649,58.9884871 397.57,58.73 L397.57,58.31 C397.57,58.05 397.68,57.92 397.9,57.92 L398.1,57.92 L398.47,58.04 C399.726123,58.4717398 401.041995,58.704548 402.37,58.73 C403.869112,58.8602122 405.354726,58.3601764 406.47,57.35 C407.440453,56.1179262 407.905286,54.5625246 407.77,53 L407.77,51.56 C407.031702,52.1676317 406.201289,52.6537271 405.31,53 C404.492394,53.3431667 403.6166,53.5264723 402.73,53.54 C400.964478,53.6187421 399.260817,52.8812263 398.11,51.54 C396.8913,49.9928454 396.273289,48.0571209 396.37,46.09 C396.256875,44.0362243 396.869228,42.0080268 398.1,40.36 C399.245203,38.9602318 400.983134,38.1820535 402.79,38.26 C404.652623,38.2548231 406.444774,38.9716836 407.79,40.26 L407.91,39.15 C407.912045,39.0205681 407.968532,38.8979885 408.065597,38.8123428 C408.162662,38.7266972 408.291321,38.6859134 408.42,38.7 L409.02,38.7 C409.143725,38.6832672 409.268168,38.7252651 409.356451,38.8135487 C409.444735,38.9018322 409.486733,39.0262746 409.47,39.15 L409.47,53.15 C409.60902,55.1143404 408.961476,57.0533761 407.67,58.54 C406.249366,59.8200623 404.366896,60.4632097 402.46,60.32 Z M403.12,52.01 C404.844278,51.9220152 406.48595,51.2441634 407.77,50.09 L407.77,41.75 C407.05959,41.1393812 406.260455,40.6403434 405.4,40.27 C404.637865,39.9597933 403.822847,39.8001857 403,39.8 C401.615152,39.7053491 400.270092,40.286594 399.39,41.36 C398.470168,42.7251874 398.03043,44.3574953 398.14,46 C398.03196,47.5999338 398.484552,49.1875414 399.42,50.49 C400.350856,51.5421063 401.718806,52.1003779 403.12,52 L403.12,52.01 Z" id="Shape" fill="#FFFFFF" fill-rule="nonzero"></path>
    </g>
  </g>
</svg>
